<svg xmlns="http://www.w3.org/2000/svg" style="display:none"><symbol id="dribbble-grey" viewbox="0 0 54.628 54.628"><g fill="#D6D6D6"><path d="M19.991 36.706l.002-.003c-.089-.07-.183-.133-.27-.205.157.126.268.208.268.208zM18.453 35.277l-.006-.006zM28.138 27.405c.156-.049.312-.097.47-.142a41.01 41.01 0 0 0-.967-2.023c-6.135 1.836-12.023 1.701-12.232 1.696-.004.126-.01.251-.01.378 0 3.059 1.153 5.848 3.048 7.957.002-.005 3.264-5.788 9.691-7.866zM26.654 23.403a71.75 71.75 0 0 0-4.424-6.865 11.93 11.93 0 0 0-6.576 8.318c.313.007 5.279.066 11-1.453zM35.183 18.372a11.87 11.87 0 0 0-7.869-2.972c-.968 0-1.907.119-2.808.336.181.24 2.418 3.211 4.455 6.951 4.49-1.684 6.189-4.265 6.222-4.315zM24.459 15.747c-.013.003-.025.005-.037.009l.037-.009zM29.34 29.264c-7.035 2.45-9.328 7.396-9.347 7.438a11.854 11.854 0 0 0 7.321 2.525c1.65 0 3.222-.335 4.651-.942-.177-1.046-.87-4.694-2.545-9.048-.026.01-.052.017-.08.027z"/><path d="M27.315 0C12.229 0 0 12.229 0 27.315c0 15.084 12.229 27.313 27.315 27.313 15.083 0 27.313-12.229 27.313-27.313C54.628 12.229 42.398 0 27.315 0zm13.666 30.124a13.92 13.92 0 0 1-3.803 7.055 14.015 14.015 0 0 1-4.435 2.99 13.958 13.958 0 0 1-8.241.813 13.98 13.98 0 0 1-2.621-.813 13.958 13.958 0 0 1-4.433-2.99 13.988 13.988 0 0 1-2.99-4.433 13.775 13.775 0 0 1-.814-2.622 14.105 14.105 0 0 1 0-5.619 13.843 13.843 0 0 1 2.101-4.993 14.074 14.074 0 0 1 3.765-3.765 14.008 14.008 0 0 1 2.371-1.287c.843-.356 1.725-.63 2.621-.814a14.05 14.05 0 0 1 5.62 0c.896.184 1.779.458 2.621.814a13.976 13.976 0 0 1 6.137 5.052 13.878 13.878 0 0 1 2.101 4.993 14.118 14.118 0 0 1 0 5.619z"/><path d="M29.877 24.462c.276.568.543 1.146.792 1.728.088.207.172.411.257.616 4.115-.518 8.166.36 8.298.389a11.867 11.867 0 0 0-2.71-7.449c-.026.038-1.936 2.796-6.637 4.716zM31.652 28.687c1.564 4.299 2.198 7.796 2.319 8.51a11.92 11.92 0 0 0 5.105-7.992c-.237-.079-3.572-1.135-7.424-.518z"/></g></symbol><symbol id="facebook-grey" viewbox="0 0 54.628 54.629"><path d="M27.314 0C12.229 0 0 12.229 0 27.314 0 42.4 12.229 54.629 27.314 54.629S54.628 42.4 54.628 27.315C54.628 12.229 42.399 0 27.314 0zM33.3 27.314h-3.843v13.919h-5.759V27.314H20.82v-4.799h2.878v-2.879c0-3.914 1.625-6.242 6.24-6.242h3.843v4.799H31.38c-1.797 0-1.917.67-1.917 1.922l-.006 2.4h4.353l-.51 4.799z"/></symbol><symbol id="google-grey" viewbox="0 0 54.629 54.629"><path d="M19.907 30.916c-3.457-.037-6.554 2.109-6.554 4.684 0 2.629 2.496 4.818 5.954 4.818 4.858 0 6.553-2.055 6.553-4.684 0-.316-.038-.629-.11-.93-.379-1.486-1.726-2.225-3.603-3.531a7.584 7.584 0 0 0-2.24-.357z"/><path d="M27.315 0C12.229 0 0 12.23 0 27.312c0 15.086 12.229 27.316 27.315 27.316 15.085 0 27.313-12.23 27.313-27.316C54.629 12.23 42.4 0 27.315 0zm-.386 19.432c0 1.902-1.055 3.539-2.544 4.703-1.452 1.135-1.729 1.611-1.729 2.576 0 .824 1.558 2.225 2.372 2.801 2.378 1.684 3.148 3.246 3.148 5.854 0 3.256-3.148 6.49-8.851 6.49-5.003 0-9.224-2.035-9.224-5.289 0-3.303 3.851-6.488 8.852-6.488.546 0 1.044-.014 1.562-.014-.686-.666-1.227-1.484-1.227-2.49 0-.596.19-1.17.458-1.682-.273.02-.551.025-.835.025-4.108 0-6.861-2.922-6.861-6.545 0-3.541 3.801-6.6 7.838-6.6h9.007l-2.016 1.455h-2.855c1.895.729 2.905 2.938 2.905 5.204zm17.592.98h-5.473v5.473h-2.166v-5.473h-5.473v-2.166h5.473v-5.473h2.166v5.473h5.473v2.166z"/><path d="M18.765 14.047c-2.319-.068-3.875 2.264-3.475 5.311s2.605 5.574 4.926 5.645c2.319.066 3.876-2.346 3.475-5.395-.4-3.046-2.607-5.489-4.926-5.561z"/></symbol><symbol id="linkedin-grey" viewbox="0 0 54.628 54.628"><path d="M27.315 0C12.23 0 0 12.229 0 27.314s12.23 27.314 27.315 27.314 27.312-12.229 27.312-27.314C54.628 12.229 42.4 0 27.315 0zm-7.772 40.064h-5.416V22.74h5.416v17.324zm-2.845-19.49h-.038c-1.96 0-3.23-1.325-3.23-3.003 0-1.709 1.309-3.007 3.308-3.007 1.996 0 3.225 1.293 3.264 3.004-.001 1.677-1.269 3.006-3.304 3.006zm24.5 19.49h-6.135v-8.963c0-2.348-.961-3.949-3.074-3.949-1.613 0-2.511 1.081-2.931 2.124-.157.373-.133.893-.133 1.413v9.375h-6.079s.077-15.88 0-17.324h6.079v2.72c.361-1.189 2.303-2.886 5.404-2.886 3.844 0 6.868 2.493 6.868 7.857v9.633z"/></symbol><symbol id="menu-facebook" viewbox="0 0 310 310"><path d="M81.703 165.106h33.981V305a5 5 0 0 0 5 5H178.3a5 5 0 0 0 5-5V165.765h39.064a5 5 0 0 0 4.967-4.429l5.933-51.502a5 5 0 0 0-4.966-5.572h-44.996V71.978c0-9.732 5.24-14.667 15.576-14.667h29.42a5 5 0 0 0 5-5V5.037a5 5 0 0 0-5-5h-40.545A39.746 39.746 0 0 0 185.896 0c-7.035 0-31.488 1.381-50.804 19.151-21.402 19.692-18.427 43.27-17.716 47.358v37.752H81.703a5 5 0 0 0-5 5v50.844a5 5 0 0 0 5 5.001z"/></symbol><symbol id="menu-instagram" viewbox="0 0 300 300"><path d="M38.52.012h222.978C282.682.012 300 17.336 300 38.52v222.978c0 21.178-17.318 38.49-38.502 38.49H38.52c-21.184 0-38.52-17.313-38.52-38.49V38.52C0 17.336 17.336.012 38.52.012zm180.026 33.317c-7.438 0-13.505 6.091-13.505 13.525v32.314c0 7.437 6.067 13.514 13.505 13.514h33.903c7.426 0 13.506-6.077 13.506-13.514V46.854c0-7.434-6.08-13.525-13.506-13.525h-33.903zm47.538 93.539h-26.396a87.715 87.715 0 0 1 3.86 25.759c0 49.882-41.766 90.34-93.266 90.34-51.487 0-93.254-40.458-93.254-90.34 0-8.963 1.37-17.584 3.861-25.759H33.35V253.6c0 6.563 5.359 11.902 11.916 11.902h208.907c6.563 0 11.911-5.339 11.911-11.902V126.868zm-115.801-35.89c-33.26 0-60.24 26.128-60.24 58.388 0 32.227 26.98 58.375 60.24 58.375 33.278 0 60.259-26.148 60.259-58.375 0-32.261-26.981-58.388-60.259-58.388z"/></symbol><symbol id="menu-pinterest" viewbox="0 0 310.05 310.05"><path d="M245.265 31.772C223.923 11.284 194.388 0 162.101 0c-49.32 0-79.654 20.217-96.416 37.176-20.658 20.9-32.504 48.651-32.504 76.139 0 34.513 14.436 61.003 38.611 70.858 1.623.665 3.256 1 4.857 1 5.1 0 9.141-3.337 10.541-8.69.816-3.071 2.707-10.647 3.529-13.936 1.76-6.495.338-9.619-3.5-14.142-6.992-8.273-10.248-18.056-10.248-30.788 0-37.818 28.16-78.011 80.352-78.011 41.412 0 67.137 23.537 67.137 61.425 0 23.909-5.15 46.051-14.504 62.35-6.5 11.325-17.93 24.825-35.477 24.825-7.588 0-14.404-3.117-18.705-8.551-4.063-5.137-5.402-11.773-3.768-18.689 1.846-7.814 4.363-15.965 6.799-23.845 4.443-14.392 8.643-27.985 8.643-38.83 0-18.55-11.404-31.014-28.375-31.014-21.568 0-38.465 21.906-38.465 49.871 0 13.715 3.645 23.973 5.295 27.912-2.717 11.512-18.865 79.953-21.928 92.859-1.771 7.534-12.44 67.039 5.219 71.784 19.841 5.331 37.576-52.623 39.381-59.172 1.463-5.326 6.582-25.465 9.719-37.845 9.578 9.226 25 15.463 40.006 15.463 28.289 0 53.73-12.73 71.637-35.843 17.367-22.418 26.932-53.664 26.932-87.978 0-26.826-11.52-53.272-31.604-72.556z"/></symbol><symbol id="menu-twitter" viewbox="0 0 310 310"><path d="M302.973 57.388a117.512 117.512 0 0 1-14.993 5.463 66.276 66.276 0 0 0 13.494-23.73 5 5 0 0 0-7.313-5.824 117.994 117.994 0 0 1-34.878 13.783c-12.381-12.098-29.197-18.983-46.581-18.983-36.695 0-66.549 29.853-66.549 66.547 0 2.89.183 5.764.545 8.598C101.163 99.244 58.83 76.863 29.76 41.204a5.001 5.001 0 0 0-8.196.642c-5.896 10.117-9.013 21.688-9.013 33.461 0 16.035 5.725 31.249 15.838 43.137a56.37 56.37 0 0 1-8.907-3.977 5 5 0 0 0-7.427 4.257c-.007.295-.007.59-.007.889 0 23.935 12.882 45.484 32.577 57.229a57.372 57.372 0 0 1-5.063-.735 4.998 4.998 0 0 0-5.699 6.437c7.29 22.76 26.059 39.501 48.749 44.605-18.819 11.787-40.34 17.961-62.932 17.961a120.4 120.4 0 0 1-14.095-.826 5 5 0 0 0-3.286 9.174c29.023 18.609 62.582 28.445 97.047 28.445 67.754 0 110.139-31.95 133.764-58.753 29.46-33.421 46.356-77.658 46.356-121.367 0-1.826-.028-3.67-.084-5.508 11.623-8.757 21.63-19.355 29.773-31.536a5 5 0 0 0-6.182-7.351z"/></symbol><symbol id="menu-vimeo" viewbox="0 0 299.999 299.999"><path d="M298.723 68.78c2.238-12.561 2.188-25.477-5.57-35.245-10.824-13.696-33.863-14.2-49.646-11.783-12.84 1.963-56.269 21.124-71.047 66.996 26.182-1.99 39.904 1.887 37.385 30.713-1.055 12.061-7.148 25.274-13.947 37.941-7.857 14.603-22.583 43.277-41.894 22.608-17.394-18.602-16.088-54.179-20.065-77.871-2.215-13.292-4.557-29.857-8.912-43.529-3.753-11.757-12.359-25.932-22.884-29.004-11.304-3.322-25.28 1.863-33.487 6.698C42.522 51.661 22.605 73.513 0 91.54c3.68 7.884 5.687 12.992 12.283 13.949 15.561 2.292 30.391-14.502 40.736 2.971 6.294 10.675 8.26 22.381 12.287 33.891 5.387 15.328 9.541 32.02 13.947 49.646 7.452 29.857 16.618 74.47 42.424 85.398 13.166 5.591 32.957-1.889 42.977-7.831 27.14-16.061 48.289-39.348 66.391-63.04 41.389-56.071 64.225-119.591 67.678-137.744z" fill-rule="evenodd" clip-rule="evenodd"/></symbol><symbol id="pinterest-grey" viewbox="0 0 54.629 54.628"><path d="M27.315 0C12.229 0 0 12.229 0 27.314c0 15.084 12.229 27.314 27.315 27.314 15.085 0 27.313-12.229 27.313-27.314C54.629 12.229 42.4 0 27.315 0zm2.321 34.018c-1.865 0-3.622-1.009-4.222-2.155 0 0-1.005 3.983-1.216 4.752-.749 2.716-2.953 5.436-3.122 5.658-.119.155-.384.106-.411-.099-.047-.347-.608-3.774.053-6.571l2.224-9.422s-.553-1.104-.553-2.736c0-2.562 1.486-4.475 3.335-4.475 1.572 0 2.331 1.18 2.331 2.596 0 1.581-1.006 3.944-1.524 6.135-.436 1.834.919 3.331 2.727 3.331 3.276 0 5.482-4.208 5.482-9.193 0-3.789-2.55-6.626-7.194-6.626-5.244 0-8.513 3.912-8.513 8.281 0 1.506.445 2.57 1.142 3.391.319.378.364.53.248.964-.083.319-.272 1.084-.352 1.388-.115.438-.471.595-.866.433-2.416-.986-3.541-3.631-3.541-6.605 0-4.911 4.143-10.801 12.357-10.801 6.602 0 10.946 4.776 10.946 9.905 0 6.782-3.771 11.849-9.331 11.849z"/></symbol><symbol id="twitter-grey" viewbox="0 0 54.628 54.628"><path d="M27.314 0C12.229 0 0 12.229 0 27.314c0 15.084 12.229 27.314 27.314 27.314 15.084 0 27.314-12.23 27.314-27.314C54.628 12.229 42.398 0 27.314 0zm11.909 22.361c.012.264.018.529.018.795 0 8.12-6.181 17.483-17.483 17.483-3.47 0-6.7-1.018-9.419-2.761.48.057.971.086 1.466.086 2.879 0 5.528-.982 7.632-2.631a6.152 6.152 0 0 1-5.741-4.267 6.118 6.118 0 0 0 2.776-.105 6.148 6.148 0 0 1-4.929-6.025l.001-.078c.828.46 1.775.736 2.783.769a6.142 6.142 0 0 1-2.734-5.114 6.11 6.11 0 0 1 .832-3.089 17.45 17.45 0 0 0 12.665 6.42 6.145 6.145 0 0 1 5.986-7.544 6.14 6.14 0 0 1 4.485 1.94c1.4-.275 2.715-.787 3.902-1.492a6.165 6.165 0 0 1-2.702 3.4 12.25 12.25 0 0 0 3.529-.968 12.503 12.503 0 0 1-3.067 3.181z"/></symbol></svg>